# Blender 4.3.1
# www.blender.org
mtllib 2.5kWh_rodcore.mtl
o batt_2.5kWh_testRod_core
v 0.000000 0.002500 0.073000
v 0.000647 0.002415 0.073000
v 0.001250 0.002165 0.073000
v 0.001768 0.001768 0.073000
v 0.002165 0.001250 0.073000
v 0.002415 0.000647 0.073000
v 0.002500 0.000000 0.073000
v 0.002415 -0.000647 0.073000
v 0.002165 -0.001250 0.073000
v 0.001768 -0.001768 0.073000
v 0.001250 -0.002165 0.073000
v 0.000647 -0.002415 0.073000
v 0.000000 -0.002500 0.073000
v -0.000647 -0.002415 0.073000
v -0.001250 -0.002165 0.073000
v -0.001768 -0.001768 0.073000
v -0.002165 -0.001250 0.073000
v -0.002415 -0.000647 0.073000
v -0.002500 0.000000 0.073000
v -0.002415 0.000647 0.073000
v -0.002165 0.001250 0.073000
v -0.001768 0.001768 0.073000
v -0.001250 0.002165 0.073000
v -0.000647 0.002415 0.073000
v 0.000000 0.002500 0.000000
v -0.000647 0.002415 0.000000
v -0.001250 0.002165 0.000000
v -0.001768 0.001768 0.000000
v -0.002165 0.001250 0.000000
v -0.002415 0.000647 0.000000
v -0.002500 0.000000 0.000000
v -0.002415 -0.000647 0.000000
v -0.002165 -0.001250 0.000000
v -0.001768 -0.001768 0.000000
v -0.001250 -0.002165 0.000000
v -0.000647 -0.002415 0.000000
v 0.000000 -0.002500 0.000000
v 0.000647 -0.002415 -0.000000
v 0.001250 -0.002165 -0.000000
v 0.001768 -0.001768 -0.000000
v 0.002165 -0.001250 -0.000000
v 0.002415 -0.000647 -0.000000
v 0.002500 0.000000 -0.000000
v 0.002415 0.000647 -0.000000
v 0.002165 0.001250 -0.000000
v 0.001768 0.001768 -0.000000
v 0.001250 0.002165 -0.000000
v 0.000647 0.002415 -0.000000
v 0.000000 0.002500 0.060833
v 0.000000 0.002500 0.048667
v 0.000000 0.002500 0.036500
v 0.000000 0.002500 0.024333
v 0.000000 0.002500 0.012167
v 0.000647 0.002415 0.060833
v 0.000647 0.002415 0.048667
v 0.000647 0.002415 0.036500
v 0.000647 0.002415 0.024333
v 0.000647 0.002415 0.012167
v 0.001250 0.002165 0.060833
v 0.001250 0.002165 0.048667
v 0.001250 0.002165 0.036500
v 0.001250 0.002165 0.024333
v 0.001250 0.002165 0.012167
v 0.001768 0.001768 0.060833
v 0.001768 0.001768 0.048667
v 0.001768 0.001768 0.036500
v 0.001768 0.001768 0.024333
v 0.001768 0.001768 0.012167
v 0.002165 0.001250 0.060833
v 0.002165 0.001250 0.048667
v 0.002165 0.001250 0.036500
v 0.002165 0.001250 0.024333
v 0.002165 0.001250 0.012167
v 0.002415 0.000647 0.060833
v 0.002415 0.000647 0.048667
v 0.002415 0.000647 0.036500
v 0.002415 0.000647 0.024333
v 0.002415 0.000647 0.012167
v 0.002500 0.000000 0.060833
v 0.002500 0.000000 0.048667
v 0.002500 0.000000 0.036500
v 0.002500 0.000000 0.024333
v 0.002500 0.000000 0.012167
v 0.002415 -0.000647 0.060833
v 0.002415 -0.000647 0.048667
v 0.002415 -0.000647 0.036500
v 0.002415 -0.000647 0.024333
v 0.002415 -0.000647 0.012167
v 0.002165 -0.001250 0.060833
v 0.002165 -0.001250 0.048667
v 0.002165 -0.001250 0.036500
v 0.002165 -0.001250 0.024333
v 0.002165 -0.001250 0.012167
v 0.001768 -0.001768 0.060833
v 0.001768 -0.001768 0.048667
v 0.001768 -0.001768 0.036500
v 0.001768 -0.001768 0.024333
v 0.001768 -0.001768 0.012167
v 0.001250 -0.002165 0.060833
v 0.001250 -0.002165 0.048667
v 0.001250 -0.002165 0.036500
v 0.001250 -0.002165 0.024333
v 0.001250 -0.002165 0.012167
v 0.000647 -0.002415 0.060833
v 0.000647 -0.002415 0.048667
v 0.000647 -0.002415 0.036500
v 0.000647 -0.002415 0.024333
v 0.000647 -0.002415 0.012167
v 0.000000 -0.002500 0.060833
v 0.000000 -0.002500 0.048667
v 0.000000 -0.002500 0.036500
v 0.000000 -0.002500 0.024333
v 0.000000 -0.002500 0.012167
v -0.000647 -0.002415 0.060833
v -0.000647 -0.002415 0.048667
v -0.000647 -0.002415 0.036500
v -0.000647 -0.002415 0.024333
v -0.000647 -0.002415 0.012167
v -0.001250 -0.002165 0.060833
v -0.001250 -0.002165 0.048667
v -0.001250 -0.002165 0.036500
v -0.001250 -0.002165 0.024333
v -0.001250 -0.002165 0.012167
v -0.001768 -0.001768 0.060833
v -0.001768 -0.001768 0.048667
v -0.001768 -0.001768 0.036500
v -0.001768 -0.001768 0.024333
v -0.001768 -0.001768 0.012167
v -0.002165 -0.001250 0.060833
v -0.002165 -0.001250 0.048667
v -0.002165 -0.001250 0.036500
v -0.002165 -0.001250 0.024333
v -0.002165 -0.001250 0.012167
v -0.002415 -0.000647 0.060833
v -0.002415 -0.000647 0.048667
v -0.002415 -0.000647 0.036500
v -0.002415 -0.000647 0.024333
v -0.002415 -0.000647 0.012167
v -0.002500 0.000000 0.060833
v -0.002500 0.000000 0.048667
v -0.002500 0.000000 0.036500
v -0.002500 0.000000 0.024333
v -0.002500 0.000000 0.012167
v -0.002415 0.000647 0.060833
v -0.002415 0.000647 0.048667
v -0.002415 0.000647 0.036500
v -0.002415 0.000647 0.024333
v -0.002415 0.000647 0.012167
v -0.002165 0.001250 0.060833
v -0.002165 0.001250 0.048667
v -0.002165 0.001250 0.036500
v -0.002165 0.001250 0.024333
v -0.002165 0.001250 0.012167
v -0.001768 0.001768 0.060833
v -0.001768 0.001768 0.048667
v -0.001768 0.001768 0.036500
v -0.001768 0.001768 0.024333
v -0.001768 0.001768 0.012167
v -0.001250 0.002165 0.060833
v -0.001250 0.002165 0.048667
v -0.001250 0.002165 0.036500
v -0.001250 0.002165 0.024333
v -0.001250 0.002165 0.012167
v -0.000647 0.002415 0.060833
v -0.000647 0.002415 0.048667
v -0.000647 0.002415 0.036500
v -0.000647 0.002415 0.024333
v -0.000647 0.002415 0.012167
vn 0.2588 0.9659 -0.0000
vn -0.0000 1.0000 -0.0000
vn -0.2588 0.9659 -0.0000
vn -0.5000 0.8660 -0.0000
vn -0.7071 0.7071 -0.0000
vn -0.8660 0.5000 -0.0000
vn -0.9659 0.2588 -0.0000
vn -1.0000 -0.0000 -0.0000
vn -0.9659 -0.2588 -0.0000
vn -0.8660 -0.5000 -0.0000
vn -0.7071 -0.7071 -0.0000
vn -0.5000 -0.8660 -0.0000
vn -0.2588 -0.9659 -0.0000
vn -0.0000 -1.0000 -0.0000
vn 0.2588 -0.9659 -0.0000
vn 0.5000 -0.8660 -0.0000
vn 0.7071 -0.7071 -0.0000
vn 0.8660 -0.5000 -0.0000
vn 0.9659 -0.2588 -0.0000
vn 1.0000 -0.0000 -0.0000
vn 0.9659 0.2588 -0.0000
vn 0.8660 0.5000 -0.0000
vn 0.7071 0.7071 -0.0000
vn 0.5000 0.8660 -0.0000
vn -0.0000 -0.0000 1.0000
vn -0.0000 -0.0000 -1.0000
vt -7.300000 0.719948
vt -6.083333 0.719948
vt -7.300000 0.785398
vt -6.083333 0.785398
vt -7.300000 -0.785398
vt -6.083333 -0.785398
vt -7.300000 -0.719948
vt -6.083333 -0.719948
vt -7.300000 -0.654498
vt -6.083333 -0.654498
vt -7.300000 -0.589049
vt -6.083333 -0.589049
vt -7.300000 -0.523599
vt -6.083333 -0.523599
vt -7.300000 -0.458149
vt -6.083333 -0.458149
vt -7.300000 -0.392699
vt -6.083333 -0.392699
vt -7.300000 -0.327249
vt -6.083333 -0.327249
vt -7.300000 -0.261799
vt -6.083333 -0.261799
vt -7.300000 -0.196350
vt -6.083333 -0.196350
vt -7.300000 -0.130900
vt -6.083333 -0.130900
vt -7.300000 -0.065450
vt -6.083333 -0.065450
vt -7.300000 0.000000
vt -6.083333 0.000000
vt -7.300000 0.065450
vt -6.083333 0.065450
vt -7.300000 0.130900
vt -6.083333 0.130900
vt -7.300000 0.196350
vt -6.083333 0.196350
vt -7.300000 0.261799
vt -6.083333 0.261799
vt -7.300000 0.327249
vt -6.083333 0.327249
vt -7.300000 0.392699
vt -6.083333 0.392699
vt -7.300000 0.458149
vt -6.083333 0.458149
vt -7.300000 0.523599
vt -6.083333 0.523599
vt -7.300000 0.589049
vt -6.083333 0.589049
vt -7.300000 0.654498
vt -6.083333 0.654498
vt -0.000000 -0.719948
vt -1.216667 -0.719948
vt -0.000000 -0.785398
vt -1.216667 -0.785398
vt -0.000000 0.785398
vt -1.216667 0.785398
vt -0.000000 0.719948
vt -1.216667 0.719948
vt -0.000000 0.654498
vt -1.216667 0.654498
vt -0.000000 0.589049
vt -1.216667 0.589049
vt -0.000000 0.523599
vt -1.216667 0.523599
vt -0.000000 0.458149
vt -1.216667 0.458149
vt -0.000000 0.392699
vt -1.216667 0.392699
vt -0.000000 0.327249
vt -1.216667 0.327249
vt -0.000000 0.261799
vt -1.216667 0.261799
vt -0.000000 0.196350
vt -1.216667 0.196350
vt -0.000000 0.130900
vt -1.216667 0.130900
vt -0.000000 0.065450
vt -1.216667 0.065450
vt -0.000000 0.000000
vt -1.216667 0.000000
vt -0.000000 -0.065450
vt -1.216667 -0.065450
vt -0.000000 -0.130900
vt -1.216667 -0.130900
vt -0.000000 -0.196350
vt -1.216667 -0.196350
vt -0.000000 -0.261799
vt -1.216667 -0.261799
vt -0.000000 -0.327249
vt -1.216667 -0.327249
vt -0.000000 -0.392699
vt -1.216667 -0.392699
vt -0.000000 -0.458149
vt -1.216667 -0.458149
vt -0.000000 -0.523599
vt -1.216667 -0.523599
vt -0.000000 -0.589049
vt -1.216667 -0.589049
vt -0.000000 -0.654498
vt -1.216667 -0.654498
vt -4.866667 -0.785398
vt -4.866667 -0.719948
vt -4.866667 -0.654498
vt -4.866667 -0.589049
vt -4.866667 -0.523599
vt -4.866667 -0.458149
vt -4.866667 -0.392699
vt -4.866667 -0.327249
vt -4.866667 -0.261799
vt -4.866667 -0.196350
vt -4.866667 -0.130900
vt -4.866667 -0.065450
vt -4.866667 0.000000
vt -4.866667 0.065450
vt -4.866667 0.130900
vt -4.866667 0.196350
vt -4.866667 0.261799
vt -4.866667 0.327249
vt -4.866667 0.392699
vt -4.866667 0.458149
vt -4.866667 0.523599
vt -4.866667 0.589049
vt -4.866667 0.654498
vt -4.866667 0.719948
vt -4.866667 0.785398
vt -3.650000 -0.785398
vt -3.650000 -0.719948
vt -3.650000 -0.654498
vt -3.650000 -0.589049
vt -3.650000 -0.523599
vt -3.650000 -0.458149
vt -3.650000 -0.392699
vt -3.650000 -0.327249
vt -3.650000 -0.261799
vt -3.650000 -0.196350
vt -3.650000 -0.130900
vt -3.650000 -0.065450
vt -3.650000 0.000000
vt -3.650000 0.065450
vt -3.650000 0.130900
vt -3.650000 0.196350
vt -3.650000 0.261799
vt -3.650000 0.327249
vt -3.650000 0.392699
vt -3.650000 0.458149
vt -3.650000 0.523599
vt -3.650000 0.589049
vt -3.650000 0.654498
vt -3.650000 0.719948
vt -3.650000 0.785398
vt -2.433333 -0.785398
vt -2.433333 -0.719948
vt -2.433333 -0.654498
vt -2.433333 -0.589049
vt -2.433333 -0.523599
vt -2.433333 -0.458149
vt -2.433333 -0.392699
vt -2.433333 -0.327249
vt -2.433333 -0.261799
vt -2.433333 -0.196350
vt -2.433333 -0.130900
vt -2.433333 -0.065450
vt -2.433333 0.000000
vt -2.433333 0.065450
vt -2.433333 0.130900
vt -2.433333 0.196350
vt -2.433333 0.261799
vt -2.433333 0.327249
vt -2.433333 0.392699
vt -2.433333 0.458149
vt -2.433333 0.523599
vt -2.433333 0.589049
vt -2.433333 0.654498
vt -2.433333 0.719948
vt -2.433333 0.785398
vt -0.241481 -0.064705
vt 0.241481 -0.064705
vt -0.250000 -0.000000
vt 0.250000 0.000000
vt -0.241481 0.064705
vt 0.241481 0.064705
vt -0.216506 0.125000
vt 0.216506 0.125000
vt -0.176777 0.176777
vt 0.176777 0.176777
vt -0.125000 0.216506
vt 0.125000 0.216506
vt -0.064705 0.241481
vt 0.064705 0.241481
vt 0.000000 0.250000
vt 0.216506 -0.125000
vt -0.216506 -0.125000
vt 0.176777 -0.176777
vt -0.176777 -0.176777
vt 0.125000 -0.216506
vt -0.125000 -0.216506
vt 0.064705 -0.241481
vt -0.064705 -0.241481
vt 0.000000 -0.250000
vt -0.000000 -0.250000
vt -0.000000 0.250000
s 1
usemtl outer
f 2/1/1 54/2/1 1/3/2
f 1/3/2 54/2/1 49/4/2
f 1/5/2 49/6/2 24/7/3
f 24/7/3 49/6/2 164/8/3
f 24/7/3 164/8/3 23/9/4
f 23/9/4 164/8/3 159/10/4
f 23/9/4 159/10/4 22/11/5
f 22/11/5 159/10/4 154/12/5
f 22/11/5 154/12/5 21/13/6
f 21/13/6 154/12/5 149/14/6
f 21/13/6 149/14/6 20/15/7
f 20/15/7 149/14/6 144/16/7
f 20/15/7 144/16/7 19/17/8
f 19/17/8 144/16/7 139/18/8
f 19/17/8 139/18/8 18/19/9
f 18/19/9 139/18/8 134/20/9
f 18/19/9 134/20/9 17/21/10
f 17/21/10 134/20/9 129/22/10
f 17/21/10 129/22/10 16/23/11
f 16/23/11 129/22/10 124/24/11
f 16/23/11 124/24/11 15/25/12
f 15/25/12 124/24/11 119/26/12
f 15/25/12 119/26/12 14/27/13
f 14/27/13 119/26/12 114/28/13
f 14/27/13 114/28/13 13/29/14
f 13/29/14 114/28/13 109/30/14
f 13/29/14 109/30/14 12/31/15
f 12/31/15 109/30/14 104/32/15
f 12/31/15 104/32/15 11/33/16
f 11/33/16 104/32/15 99/34/16
f 11/33/16 99/34/16 10/35/17
f 10/35/17 99/34/16 94/36/17
f 10/35/17 94/36/17 9/37/18
f 9/37/18 94/36/17 89/38/18
f 9/37/18 89/38/18 8/39/19
f 8/39/19 89/38/18 84/40/19
f 8/39/19 84/40/19 7/41/20
f 7/41/20 84/40/19 79/42/20
f 7/41/20 79/42/20 6/43/21
f 6/43/21 79/42/20 74/44/21
f 6/43/21 74/44/21 5/45/22
f 5/45/22 74/44/21 69/46/22
f 5/45/22 69/46/22 4/47/23
f 4/47/23 69/46/22 64/48/23
f 4/47/23 64/48/23 3/49/24
f 3/49/24 64/48/23 59/50/24
f 3/49/24 59/50/24 2/1/1
f 2/1/1 59/50/24 54/2/1
f 26/51/3 168/52/3 25/53/2
f 25/53/2 168/52/3 53/54/2
f 25/55/2 53/56/2 48/57/1
f 48/57/1 53/56/2 58/58/1
f 48/57/1 58/58/1 47/59/24
f 47/59/24 58/58/1 63/60/24
f 47/59/24 63/60/24 46/61/23
f 46/61/23 63/60/24 68/62/23
f 46/61/23 68/62/23 45/63/22
f 45/63/22 68/62/23 73/64/22
f 45/63/22 73/64/22 44/65/21
f 44/65/21 73/64/22 78/66/21
f 44/65/21 78/66/21 43/67/20
f 43/67/20 78/66/21 83/68/20
f 43/67/20 83/68/20 42/69/19
f 42/69/19 83/68/20 88/70/19
f 42/69/19 88/70/19 41/71/18
f 41/71/18 88/70/19 93/72/18
f 41/71/18 93/72/18 40/73/17
f 40/73/17 93/72/18 98/74/17
f 40/73/17 98/74/17 39/75/16
f 39/75/16 98/74/17 103/76/16
f 39/75/16 103/76/16 38/77/15
f 38/77/15 103/76/16 108/78/15
f 38/77/15 108/78/15 37/79/14
f 37/79/14 108/78/15 113/80/14
f 37/79/14 113/80/14 36/81/13
f 36/81/13 113/80/14 118/82/13
f 36/81/13 118/82/13 35/83/12
f 35/83/12 118/82/13 123/84/12
f 35/83/12 123/84/12 34/85/11
f 34/85/11 123/84/12 128/86/11
f 34/85/11 128/86/11 33/87/10
f 33/87/10 128/86/11 133/88/10
f 33/87/10 133/88/10 32/89/9
f 32/89/9 133/88/10 138/90/9
f 32/89/9 138/90/9 31/91/8
f 31/91/8 138/90/9 143/92/8
f 31/91/8 143/92/8 30/93/7
f 30/93/7 143/92/8 148/94/7
f 30/93/7 148/94/7 29/95/6
f 29/95/6 148/94/7 153/96/6
f 29/95/6 153/96/6 28/97/5
f 28/97/5 153/96/6 158/98/5
f 28/97/5 158/98/5 27/99/4
f 27/99/4 158/98/5 163/100/4
f 27/99/4 163/100/4 26/51/3
f 26/51/3 163/100/4 168/52/3
f 49/6/2 50/101/2 164/8/3
f 164/8/3 50/101/2 165/102/3
f 164/8/3 165/102/3 159/10/4
f 159/10/4 165/102/3 160/103/4
f 159/10/4 160/103/4 154/12/5
f 154/12/5 160/103/4 155/104/5
f 154/12/5 155/104/5 149/14/6
f 149/14/6 155/104/5 150/105/6
f 149/14/6 150/105/6 144/16/7
f 144/16/7 150/105/6 145/106/7
f 144/16/7 145/106/7 139/18/8
f 139/18/8 145/106/7 140/107/8
f 139/18/8 140/107/8 134/20/9
f 134/20/9 140/107/8 135/108/9
f 134/20/9 135/108/9 129/22/10
f 129/22/10 135/108/9 130/109/10
f 129/22/10 130/109/10 124/24/11
f 124/24/11 130/109/10 125/110/11
f 124/24/11 125/110/11 119/26/12
f 119/26/12 125/110/11 120/111/12
f 119/26/12 120/111/12 114/28/13
f 114/28/13 120/111/12 115/112/13
f 114/28/13 115/112/13 109/30/14
f 109/30/14 115/112/13 110/113/14
f 109/30/14 110/113/14 104/32/15
f 104/32/15 110/113/14 105/114/15
f 104/32/15 105/114/15 99/34/16
f 99/34/16 105/114/15 100/115/16
f 99/34/16 100/115/16 94/36/17
f 94/36/17 100/115/16 95/116/17
f 94/36/17 95/116/17 89/38/18
f 89/38/18 95/116/17 90/117/18
f 89/38/18 90/117/18 84/40/19
f 84/40/19 90/117/18 85/118/19
f 84/40/19 85/118/19 79/42/20
f 79/42/20 85/118/19 80/119/20
f 79/42/20 80/119/20 74/44/21
f 74/44/21 80/119/20 75/120/21
f 74/44/21 75/120/21 69/46/22
f 69/46/22 75/120/21 70/121/22
f 69/46/22 70/121/22 64/48/23
f 64/48/23 70/121/22 65/122/23
f 64/48/23 65/122/23 59/50/24
f 59/50/24 65/122/23 60/123/24
f 59/50/24 60/123/24 54/2/1
f 54/2/1 60/123/24 55/124/1
f 54/2/1 55/124/1 49/4/2
f 49/4/2 55/124/1 50/125/2
f 50/101/2 51/126/2 165/102/3
f 165/102/3 51/126/2 166/127/3
f 165/102/3 166/127/3 160/103/4
f 160/103/4 166/127/3 161/128/4
f 160/103/4 161/128/4 155/104/5
f 155/104/5 161/128/4 156/129/5
f 155/104/5 156/129/5 150/105/6
f 150/105/6 156/129/5 151/130/6
f 150/105/6 151/130/6 145/106/7
f 145/106/7 151/130/6 146/131/7
f 145/106/7 146/131/7 140/107/8
f 140/107/8 146/131/7 141/132/8
f 140/107/8 141/132/8 135/108/9
f 135/108/9 141/132/8 136/133/9
f 135/108/9 136/133/9 130/109/10
f 130/109/10 136/133/9 131/134/10
f 130/109/10 131/134/10 125/110/11
f 125/110/11 131/134/10 126/135/11
f 125/110/11 126/135/11 120/111/12
f 120/111/12 126/135/11 121/136/12
f 120/111/12 121/136/12 115/112/13
f 115/112/13 121/136/12 116/137/13
f 115/112/13 116/137/13 110/113/14
f 110/113/14 116/137/13 111/138/14
f 110/113/14 111/138/14 105/114/15
f 105/114/15 111/138/14 106/139/15
f 105/114/15 106/139/15 100/115/16
f 100/115/16 106/139/15 101/140/16
f 100/115/16 101/140/16 95/116/17
f 95/116/17 101/140/16 96/141/17
f 95/116/17 96/141/17 90/117/18
f 90/117/18 96/141/17 91/142/18
f 90/117/18 91/142/18 85/118/19
f 85/118/19 91/142/18 86/143/19
f 85/118/19 86/143/19 80/119/20
f 80/119/20 86/143/19 81/144/20
f 80/119/20 81/144/20 75/120/21
f 75/120/21 81/144/20 76/145/21
f 75/120/21 76/145/21 70/121/22
f 70/121/22 76/145/21 71/146/22
f 70/121/22 71/146/22 65/122/23
f 65/122/23 71/146/22 66/147/23
f 65/122/23 66/147/23 60/123/24
f 60/123/24 66/147/23 61/148/24
f 60/123/24 61/148/24 55/124/1
f 55/124/1 61/148/24 56/149/1
f 55/124/1 56/149/1 50/125/2
f 50/125/2 56/149/1 51/150/2
f 51/126/2 52/151/2 166/127/3
f 166/127/3 52/151/2 167/152/3
f 166/127/3 167/152/3 161/128/4
f 161/128/4 167/152/3 162/153/4
f 161/128/4 162/153/4 156/129/5
f 156/129/5 162/153/4 157/154/5
f 156/129/5 157/154/5 151/130/6
f 151/130/6 157/154/5 152/155/6
f 151/130/6 152/155/6 146/131/7
f 146/131/7 152/155/6 147/156/7
f 146/131/7 147/156/7 141/132/8
f 141/132/8 147/156/7 142/157/8
f 141/132/8 142/157/8 136/133/9
f 136/133/9 142/157/8 137/158/9
f 136/133/9 137/158/9 131/134/10
f 131/134/10 137/158/9 132/159/10
f 131/134/10 132/159/10 126/135/11
f 126/135/11 132/159/10 127/160/11
f 126/135/11 127/160/11 121/136/12
f 121/136/12 127/160/11 122/161/12
f 121/136/12 122/161/12 116/137/13
f 116/137/13 122/161/12 117/162/13
f 116/137/13 117/162/13 111/138/14
f 111/138/14 117/162/13 112/163/14
f 111/138/14 112/163/14 106/139/15
f 106/139/15 112/163/14 107/164/15
f 106/139/15 107/164/15 101/140/16
f 101/140/16 107/164/15 102/165/16
f 101/140/16 102/165/16 96/141/17
f 96/141/17 102/165/16 97/166/17
f 96/141/17 97/166/17 91/142/18
f 91/142/18 97/166/17 92/167/18
f 91/142/18 92/167/18 86/143/19
f 86/143/19 92/167/18 87/168/19
f 86/143/19 87/168/19 81/144/20
f 81/144/20 87/168/19 82/169/20
f 81/144/20 82/169/20 76/145/21
f 76/145/21 82/169/20 77/170/21
f 76/145/21 77/170/21 71/146/22
f 71/146/22 77/170/21 72/171/22
f 71/146/22 72/171/22 66/147/23
f 66/147/23 72/171/22 67/172/23
f 66/147/23 67/172/23 61/148/24
f 61/148/24 67/172/23 62/173/24
f 61/148/24 62/173/24 56/149/1
f 56/149/1 62/173/24 57/174/1
f 56/149/1 57/174/1 51/150/2
f 51/150/2 57/174/1 52/175/2
f 52/151/2 53/54/2 167/152/3
f 167/152/3 53/54/2 168/52/3
f 167/152/3 168/52/3 162/153/4
f 162/153/4 168/52/3 163/100/4
f 162/153/4 163/100/4 157/154/5
f 157/154/5 163/100/4 158/98/5
f 157/154/5 158/98/5 152/155/6
f 152/155/6 158/98/5 153/96/6
f 152/155/6 153/96/6 147/156/7
f 147/156/7 153/96/6 148/94/7
f 147/156/7 148/94/7 142/157/8
f 142/157/8 148/94/7 143/92/8
f 142/157/8 143/92/8 137/158/9
f 137/158/9 143/92/8 138/90/9
f 137/158/9 138/90/9 132/159/10
f 132/159/10 138/90/9 133/88/10
f 132/159/10 133/88/10 127/160/11
f 127/160/11 133/88/10 128/86/11
f 127/160/11 128/86/11 122/161/12
f 122/161/12 128/86/11 123/84/12
f 122/161/12 123/84/12 117/162/13
f 117/162/13 123/84/12 118/82/13
f 117/162/13 118/82/13 112/163/14
f 112/163/14 118/82/13 113/80/14
f 112/163/14 113/80/14 107/164/15
f 107/164/15 113/80/14 108/78/15
f 107/164/15 108/78/15 102/165/16
f 102/165/16 108/78/15 103/76/16
f 102/165/16 103/76/16 97/166/17
f 97/166/17 103/76/16 98/74/17
f 97/166/17 98/74/17 92/167/18
f 92/167/18 98/74/17 93/72/18
f 92/167/18 93/72/18 87/168/19
f 87/168/19 93/72/18 88/70/19
f 87/168/19 88/70/19 82/169/20
f 82/169/20 88/70/19 83/68/20
f 82/169/20 83/68/20 77/170/21
f 77/170/21 83/68/20 78/66/21
f 77/170/21 78/66/21 72/171/22
f 72/171/22 78/66/21 73/64/22
f 72/171/22 73/64/22 67/172/23
f 67/172/23 73/64/22 68/62/23
f 67/172/23 68/62/23 62/173/24
f 62/173/24 68/62/23 63/60/24
f 62/173/24 63/60/24 57/174/1
f 57/174/1 63/60/24 58/58/1
f 57/174/1 58/58/1 52/175/2
f 52/175/2 58/58/1 53/56/2
usemtl steel
f 24/176/25 14/177/25 1/178/25
f 1/178/25 14/177/25 13/179/25
f 1/178/25 13/179/25 2/180/25
f 2/180/25 13/179/25 12/181/25
f 2/180/25 12/181/25 3/182/25
f 3/182/25 12/181/25 11/183/25
f 3/182/25 11/183/25 4/184/25
f 4/184/25 11/183/25 10/185/25
f 4/184/25 10/185/25 5/186/25
f 5/186/25 10/185/25 9/187/25
f 5/186/25 9/187/25 6/188/25
f 6/188/25 9/187/25 8/189/25
f 6/188/25 8/189/25 7/190/25
f 14/177/25 24/176/25 15/191/25
f 15/191/25 24/176/25 23/192/25
f 15/191/25 23/192/25 16/193/25
f 16/193/25 23/192/25 22/194/25
f 16/193/25 22/194/25 17/195/25
f 17/195/25 22/194/25 21/196/25
f 17/195/25 21/196/25 18/197/25
f 18/197/25 21/196/25 20/198/25
f 18/197/25 20/198/25 19/199/25
f 48/181/26 38/180/26 25/179/26
f 25/179/26 38/180/26 37/178/26
f 25/179/26 37/178/26 26/177/26
f 26/177/26 37/178/26 36/176/26
f 26/177/26 36/176/26 27/191/26
f 27/191/26 36/176/26 35/192/26
f 27/191/26 35/192/26 28/193/26
f 28/193/26 35/192/26 34/194/26
f 28/193/26 34/194/26 29/195/26
f 29/195/26 34/194/26 33/196/26
f 29/195/26 33/196/26 30/197/26
f 30/197/26 33/196/26 32/198/26
f 30/197/26 32/198/26 31/200/26
f 38/180/26 48/181/26 39/182/26
f 39/182/26 48/181/26 47/183/26
f 39/182/26 47/183/26 40/184/26
f 40/184/26 47/183/26 46/185/26
f 40/184/26 46/185/26 41/186/26
f 41/186/26 46/185/26 45/187/26
f 41/186/26 45/187/26 42/188/26
f 42/188/26 45/187/26 44/189/26
f 42/188/26 44/189/26 43/201/26
